<svg width="32" height="32" viewBox="0 0 32 32" fill="none" xmlns="http://www.w3.org/2000/svg">
<rect width="32" height="32" rx="2" fill="#0C781C"/>
<path d="M0 28.4446C0 26.9871 0 26.2584 0.361696 25.7418C0.495513 25.5507 0.661736 25.3845 0.852846 25.2507C1.3694 24.889 2.09812 24.889 3.55556 24.889H28C29.8856 24.889 30.8284 24.889 31.4142 24.3032C32 23.7174 32 22.7746 32 20.889V19.5557V28.0001C32 29.8857 32 30.8285 31.4142 31.4143C30.8284 32.0001 29.8856 32.0001 28 32.0001H3.55556C2.09812 32.0001 1.3694 32.0001 0.852846 31.6384C0.661736 31.5046 0.495513 31.3384 0.361696 31.1473C0 30.6307 0 29.902 0 28.4446V28.4446Z" fill="#9AE016"/>
</svg>
