<svg width="32" height="32" viewBox="0 0 32 32" fill="none" xmlns="http://www.w3.org/2000/svg">
<rect width="32" height="32" rx="2" fill="#35383E"/>
<path d="M0 28.5714C0 27.2349 0 26.5667 0.306552 26.0788C0.466407 25.8244 0.681528 25.6093 0.935936 25.4494C1.42381 25.1429 2.09206 25.1429 3.42857 25.1429H28C29.8856 25.1429 30.8284 25.1429 31.4142 24.5571C32 23.9713 32 23.0285 32 21.1429V20V28C32 29.8856 32 30.8284 31.4142 31.4142C30.8284 32 29.8856 32 28 32H3.42857C2.09206 32 1.42381 32 0.935936 31.6934C0.681528 31.5336 0.466407 31.3185 0.306552 31.0641C0 30.5762 0 29.9079 0 28.5714V28.5714Z" fill="#D1E8DB"/>
</svg>
